Coordinates
version=1
nRows=36
nColumns=32
inDegrees=no

Units are S.I. units (second, meters, Newtons, ...)
If the header above contains a line with 'inDegrees', this indicates whether rotational values are in degrees (yes) or radians (no).

endheader
time	pelvis_tilt	pelvis_list	pelvis_rotation	pelvis_tx	pelvis_ty	pelvis_tz	hip_flexion_r	hip_adduction_r	hip_rotation_r	knee_angle_r	ankle_angle_r	subtalar_angle_r	mtp_angle_r	hip_flexion_l	hip_adduction_l	hip_rotation_l	knee_angle_l	ankle_angle_l	subtalar_angle_l	mtp_angle_l	lumbar_extension	lumbar_bending	lumbar_rotation	arm_flex_r	arm_add_r	arm_rot_r	elbow_flex_r	arm_flex_l	arm_add_l	arm_rot_l	elbow_flex_l
1.96	-0.259979	0.0738358	0.032885	0.816141	0.97312	-0.274545	0.110338	-0.112188	-0.29994	0.607386	0.166473	0.0750856	-0.00995042	0.972321	-0.0432193	-0.116407	1.67341	0.0345603	-0.152622	-0.0621524	0.0090339	-0.0705251	0.0834594	-0.414188	-0.232212	-0.169246	2.02364	-0.823189	-0.294177	-0.118167	2.02898
1.965	-0.264288	0.0855631	0.0371507	0.817811	0.976645	-0.274981	0.078054	-0.124931	-0.318795	0.574833	0.107232	0.095873	-0.00996911	0.980717	-0.0308711	-0.134198	1.61871	0.0383434	-0.146683	-0.062136	0.0191221	-0.0866654	0.0900318	-0.417106	-0.230301	-0.171736	2.04312	-0.840985	-0.302101	-0.124904	2.043
1.97	-0.268438	0.0962257	0.0411579	0.81958	0.980157	-0.275444	0.0464245	-0.135834	-0.337275	0.541715	0.0440639	0.115635	-0.00998783	0.986846	-0.0194784	-0.151414	1.56179	0.0418921	-0.138108	-0.0621196	0.0290493	-0.101454	0.0963822	-0.420496	-0.22916	-0.173765	2.06268	-0.858991	-0.309114	-0.132142	2.05693
1.975	-0.27231	0.105537	0.0449437	0.821437	0.983612	-0.27592	0.015479	-0.144571	-0.354684	0.508349	-0.0219232	0.133756	-0.0100066	0.990679	-0.00918885	-0.167753	1.50273	0.045361	-0.126798	-0.0621031	0.0387082	-0.114554	0.10238	-0.424276	-0.228839	-0.175288	2.08228	-0.877176	-0.315114	-0.139808	2.07062
1.98	-0.275798	0.113304	0.0484963	0.823366	0.98697	-0.276385	-0.0147171	-0.150973	-0.370351	0.475197	-0.0894196	0.149508	-0.0100254	0.992167	-0.00010717	-0.183003	1.44157	0.0489177	-0.11264	-0.0620866	0.0479983	-0.125764	0.107953	-0.428384	-0.229311	-0.176275	2.10184	-0.895498	-0.320051	-0.147845	2.08393
1.985	-0.27881	0.119483	0.0517661	0.82535	0.990192	-0.276824	-0.0440465	-0.155084	-0.383729	0.44288	-0.157004	0.162076	-0.0100442	0.991247	0.00774657	-0.19708	1.37827	0.0526663	-0.0955752	-0.06207	0.0568283	-0.135039	0.1131	-0.432787	-0.230485	-0.176726	2.12128	-0.913888	-0.323939	-0.156196	2.09673
1.99	-0.281279	0.124186	0.0546792	0.827373	0.993244	-0.277226	-0.0723315	-0.157181	-0.394462	0.41218	-0.223261	0.170578	-0.010063	0.987867	0.0144558	-0.210047	1.31272	0.0565642	-0.0756711	-0.0620535	0.065124	-0.142497	0.117883	-0.437471	-0.232229	-0.176658	2.14048	-0.932247	-0.326858	-0.164802	2.1089
1.995	-0.283185	0.127643	0.0571504	0.82942	0.996098	-0.277587	-0.0993248	-0.157731	-0.402405	0.384011	-0.286889	0.174118	-0.0100819	0.982012	0.0202001	-0.222103	1.24482	0.0603593	-0.0531699	-0.0620369	0.0728435	-0.148381	0.122407	-0.44244	-0.234394	-0.176116	2.15935	-0.950444	-0.328936	-0.173593	2.12039
2	-0.284572	0.13013	0.0591002	0.831473	0.99873	-0.277903	-0.124703	-0.157308	-0.407587	0.359375	-0.346782	0.171858	-0.0101008	0.973755	0.0252166	-0.233551	1.17447	0.0635768	-0.0285008	-0.0620202	0.0799985	-0.152998	0.126798	-0.447703	-0.236831	-0.175165	2.17773	-0.968325	-0.330331	-0.182488	2.13114
2.005	-0.285569	0.131895	0.0604628	0.833486	1.00113	-0.278163	-0.148084	-0.156475	-0.410127	0.339297	-0.402038	0.163124	-0.0101198	0.963288	0.029736	-0.244759	1.10167	0.0655781	-0.0022184	-0.0620036	0.0866584	-0.156633	0.13118	-0.453273	-0.239409	-0.1739	2.19549	-0.985717	-0.331201	-0.191388	2.14115
2.01	-0.286333	0.1331	0.0612015	0.835442	1.00327	-0.278367	-0.169039	-0.155666	-0.410129	0.324731	-0.451928	0.1475	-0.0101388	0.95094	0.033909	-0.256136	1.02662	0.0656845	0.0251202	-0.0619869	0.092956	-0.159471	0.135657	-0.459163	-0.242027	-0.172437	2.21244	-1.00243	-0.331687	-0.200178	2.1504
2.015	-0.287041	0.133777	0.0613062	0.837323	1.00514	-0.278518	-0.187158	-0.155097	-0.407591	0.316488	-0.495838	0.124895	-0.0101578	0.937162	0.0377588	-0.268129	0.949747	0.0633337	0.0530872	-0.0619701	0.0990459	-0.161554	0.140292	-0.465377	-0.244614	-0.170909	2.22843	-1.01827	-0.331892	-0.20873	2.1589
2.02	-0.287856	0.133825	0.0607977	0.839106	1.0067	-0.278619	-0.2021	-0.154737	-0.402359	0.315166	-0.533264	0.095573	-0.0101769	0.922476	0.0411687	-0.281231	0.871759	0.0582335	0.0814975	-0.0619534	0.105059	-0.16278	0.145092	-0.471901	-0.247131	-0.169453	2.24325	-1.03302	-0.331881	-0.216914	2.16666
2.025	-0.288882	0.133041	0.059732	0.840774	1.00795	-0.278667	-0.213649	-0.154332	-0.394162	0.321093	-0.563842	0.0601679	-0.010196	0.907419	0.0439138	-0.295972	0.793659	0.0504692	0.110484	-0.0619366	0.111052	-0.162942	0.149994	-0.478699	-0.249563	-0.168202	2.25676	-1.04645	-0.331672	-0.224607	2.17367
2.03	-0.290133	0.131183	0.0582083	0.842313	1.00886	-0.278664	-0.221764	-0.153489	-0.382721	0.334305	-0.587392	0.0196984	-0.0102151	0.892477	0.0457283	-0.3129	0.716684	0.0405187	0.140492	-0.0619197	0.116978	-0.161795	0.154856	-0.485708	-0.251914	-0.167271	2.26878	-1.05836	-0.331249	-0.231699	2.17991
2.035	-0.291522	0.128045	0.0563757	0.843719	1.00945	-0.278611	-0.226589	-0.151776	-0.367917	0.354555	-0.603965	-0.0244462	-0.0102342	0.878035	0.0463877	-0.33253	0.64223	0.0291569	0.172167	-0.0619029	0.122664	-0.159138	0.159455	-0.492842	-0.254196	-0.16674	2.27918	-1.06856	-0.330566	-0.238106	2.18535
2.04	-0.292875	0.123514	0.0544353	0.84499	1.00973	-0.27852	-0.228425	-0.148827	-0.349915	0.381363	-0.613916	-0.0706047	-0.0102534	0.864368	0.045779	-0.355273	0.571736	0.0172751	0.206183	-0.061886	0.127846	-0.15488	0.163497	-0.500003	-0.256412	-0.166646	2.28785	-1.07688	-0.329567	-0.243776	2.18996
2.045	-0.293982	0.117612	0.0526323	0.846131	1.00973	-0.27841	-0.227662	-0.144415	-0.329194	0.414099	-0.617983	-0.117031	-0.0102727	0.851651	0.0439429	-0.381331	0.506563	0.00567641	0.243041	-0.0618691	0.132218	-0.149082	0.166641	-0.507087	-0.258554	-0.166977	2.29469	-1.08321	-0.328198	-0.248692	2.19368
2.05	-0.294649	0.110508	0.0512351	0.847153	1.0095	-0.278303	-0.224693	-0.138495	-0.306491	0.452077	-0.617315	-0.162101	-0.0102919	0.83998	0.0410832	-0.410594	0.447865	-0.00508848	0.282889	-0.0618521	0.135505	-0.141972	0.16854	-0.513995	-0.260586	-0.167672	2.29961	-1.08749	-0.326424	-0.252875	2.19648
2.055	-0.29473	0.1025	0.050506	0.848062	1.00907	-0.278226	-0.219854	-0.131203	-0.282708	0.494637	-0.613373	-0.204461	-0.0103112	0.829392	0.0375418	-0.442558	0.396483	-0.0147992	0.325386	-0.0618351	0.137505	-0.133925	0.16888	-0.520638	-0.262452	-0.168628	2.30252	-1.08972	-0.324235	-0.256377	2.1983
2.06	-0.294154	0.0939776	0.0506651	0.848864	1.00848	-0.278203	-0.213376	-0.122838	-0.2588	0.541205	-0.607745	-0.243102	-0.0103306	0.819872	0.0337436	-0.476285	0.352887	-0.0235488	0.369634	-0.0618181	0.138111	-0.125417	0.167418	-0.526937	-0.264078	-0.169719	2.30334	-1.08994	-0.321652	-0.259273	2.19913
2.065	-0.29292	0.0853681	0.0518601	0.849558	1.00776	-0.278254	-0.205362	-0.113808	-0.235672	0.591322	-0.601944	-0.277359	-0.0103499	0.811365	0.0301245	-0.510436	0.317174	-0.0316496	0.414217	-0.0618011	0.137317	-0.116959	0.164027	-0.53283	-0.26538	-0.170821	2.302	-1.08822	-0.318734	-0.261648	2.19894
2.07	-0.291104	0.0770815	0.0541463	0.85014	1.00692	-0.278391	-0.195794	-0.104574	-0.214089	0.644632	-0.597205	-0.306867	-0.0103693	0.803799	0.027063	-0.543377	0.289112	-0.0395018	0.45734	-0.061784	0.135221	-0.109032	0.158708	-0.538284	-0.266273	-0.171834	2.29844	-1.08466	-0.315582	-0.263574	2.19776
2.075	-0.288845	0.069469	0.0574829	0.850601	1.00596	-0.278615	-0.184554	-0.0956034	-0.194633	0.700856	-0.594347	-0.331505	-0.0103887	0.797104	0.0248304	-0.573364	0.268225	-0.0474688	0.497058	-0.0617669	0.13201	-0.102034	0.151599	-0.543295	-0.266675	-0.172698	2.29264	-1.07936	-0.312337	-0.265105	2.19562
2.08	-0.28632	0.0627967	0.0617446	0.850935	1.00488	-0.278917	-0.171477	-0.0873259	-0.177684	0.759737	-0.593707	-0.351342	-0.0104082	0.791215	0.0235675	-0.598767	0.253874	-0.0557958	0.531556	-0.0617498	0.127931	-0.0962555	0.142944	-0.547892	-0.26652	-0.173394	2.28462	-1.07242	-0.30917	-0.26627	2.19256
2.085	-0.283712	0.0572342	0.0667482	0.851141	1.00368	-0.279282	-0.156424	-0.0800984	-0.163428	0.820986	-0.595139	-0.366579	-0.0104277	0.786054	0.023288	-0.618276	0.245341	-0.0645847	0.559418	-0.0617327	0.123249	-0.091866	0.133053	-0.552127	-0.265767	-0.173933	2.27444	-1.06398	-0.306261	-0.267086	2.18864
2.09	-0.281165	0.0528645	0.0722843	0.851223	1.00233	-0.279688	-0.139345	-0.0741881	-0.151873	0.884253	-0.598071	-0.377488	-0.0104472	0.781496	0.0239058	-0.631068	0.241889	-0.0738009	0.579836	-0.0617155	0.118187	-0.0889346	0.122248	-0.556056	-0.264396	-0.174337	2.2622	-1.05416	-0.30378	-0.26757	2.18394
2.095	-0.278744	0.0497088	0.0781445	0.851195	1.00083	-0.280109	-0.120339	-0.0697816	-0.142885	0.949106	-0.601622	-0.384378	-0.0104668	0.777346	0.0252799	-0.636859	0.242826	-0.083272	0.592691	-0.0616983	0.112882	-0.0874624	0.110817	-0.559733	-0.262414	-0.174622	2.24805	-1.0431	-0.301874	-0.267751	2.17855
2.1	-0.276416	0.0477612	0.0841399	0.85108	0.999169	-0.280522	-0.0996758	-0.0670137	-0.136233	1.01505	-0.604736	-0.387602	-0.0104863	0.773321	0.0272659	-0.635867	0.247547	-0.0926504	0.598472	-0.061681	0.107351	-0.0874216	0.0989932	-0.563197	-0.259844	-0.17478	2.23214	-1.03098	-0.300655	-0.267679	2.17256
2.105	-0.274043	0.0470188	0.0901047	0.85091	0.997363	-0.280906	-0.0777817	-0.0660006	-0.131624	1.08156	-0.606355	-0.387595	-0.010506	0.769065	0.0297567	-0.628683	0.255586	-0.10134	0.598085	-0.0616638	0.101489	-0.0887862	0.0869447	-0.566471	-0.256725	-0.174776	2.21462	-1.01797	-0.300195	-0.267425	2.16609
2.11	-0.271405	0.0474977	0.0958916	0.85072	0.99542	-0.281246	-0.0551922	-0.0668595	-0.128737	1.14811	-0.605591	-0.384898	-0.0105256	0.764188	0.0326993	-0.61613	0.266664	-0.108416	0.592603	-0.0616465	0.0950845	-0.0915426	0.0747876	-0.569564	-0.253108	-0.174554	2.19566	-1.00425	-0.300521	-0.267066	2.15921
2.115	-0.268233	0.0492286	0.101367	0.850546	0.993357	-0.281536	-0.0324689	-0.069706	-0.127237	1.21419	-0.601862	-0.380172	-0.0105453	0.758336	0.0360881	-0.599145	0.280729	-0.112595	0.583023	-0.0616291	0.0878652	-0.0956836	0.0625981	-0.572467	-0.249063	-0.174051	2.17536	-0.989973	-0.301622	-0.266678	2.15201
2.12	-0.264273	0.052235	0.106407	0.850418	0.991189	-0.281774	-0.0100969	-0.0746189	-0.126766	1.2794	-0.594973	-0.374183	-0.010565	0.751271	0.0399395	-0.578711	0.297965	-0.112284	0.570109	-0.0616118	0.0795557	-0.101188	0.0504245	-0.575159	-0.244674	-0.173227	2.15383	-0.975269	-0.303452	-0.266317	2.14456
2.125	-0.259339	0.0565023	0.1109	0.850353	0.988927	-0.281961	0.011617	-0.0815884	-0.126914	1.34342	-0.585106	-0.36777	-0.0105847	0.742932	0.0442616	-0.555827	0.318741	-0.105752	0.55431	-0.0615944	0.0699457	-0.107992	0.0383019	-0.577611	-0.240043	-0.172078	2.13114	-0.960216	-0.305937	-0.266007	2.13688
2.13	-0.253367	0.0619539	0.114735	0.850349	0.986567	-0.282104	0.03262	-0.0904821	-0.127211	1.40607	-0.572745	-0.36177	-0.0106045	0.73347	0.0490326	-0.531477	0.343513	-0.0914191	0.535749	-0.061577	0.0589477	-0.115969	0.0262714	-0.579789	-0.235286	-0.170656	2.10735	-0.944841	-0.308985	-0.265721	2.12901
2.135	-0.246439	0.0684464	0.117795	0.850381	0.984097	-0.282208	0.0531364	-0.101051	-0.127126	1.46726	-0.558562	-0.356929	-0.0106243	0.723232	0.0541993	-0.506586	0.37266	-0.068214	0.514288	-0.0615596	0.0466296	-0.124923	0.0143979	-0.581673	-0.230526	-0.16906	2.08251	-0.929118	-0.312494	-0.265384	2.12095
